<svg id="Layer_1" data-name="Layer 1" xmlns="http://www.w3.org/2000/svg" viewBox="0 0 87.34 81.47"><defs><style>.cls-1{fill:#fff;}</style></defs><title>Urbanika_sign</title><path class="cls-1" d="M43,0c0,.94,0,1.87,0,2.81,0,.16,0,.32,0,.48,0,.54,0,.54-.52.55H39.6c-.31,0-.37-.05-.38-.35V.6c0-.2.06-.41-.07-.6Z"/><path class="cls-1" d="M43.82,30.71h9.64c.25,0,.3.07.32.34V40.7c0,.43,0,.46-.48.46H51.65a.25.25,0,0,1-.27-.25c0-.19,0-.37,0-.55V34c0-.8,0-.76-.74-.76H47.94c-.26,0-.33.07-.35.32s0,.41,0,.62v9.22c0,.21,0,.41,0,.62s-.11.24-.26.24H40.77c-.8,0-.76.05-.76-.73V34.06c0-.18,0-.36,0-.55s-.07-.31-.34-.31H36.49a.21.21,0,0,0-.21.22c0,.18,0,.37,0,.55,0,.9,0,1.79,0,2.69,0,.31,0,.36-.35.37H34.12c-.27,0-.32-.05-.33-.33V31.32c0-.13,0-.27,0-.41a.19.19,0,0,1,.18-.18l.62,0h9.22"/><path class="cls-1" d="M25.25,40.1H30.2a.22.22,0,0,1,.22.22c0,.13,0,.27,0,.41v9.14c0,.12,0,.23,0,.34s-.07.3-.28.31h-9.9a.22.22,0,0,1-.22-.21c0-.14,0-.28,0-.42q0-4.56,0-9.14c0-.11,0-.23,0-.34s.07-.3.28-.31h4.95"/><path class="cls-1" d="M33.92,22.1V17.77c0-.16,0-.32,0-.48s0-.34.38-.35c.13,0,.27,0,.41,0h8.87c.8,0,.76-.05.76.73V27c0,.33-.07.38-.42.4H34.71c-.88,0-.78,0-.79-.79V22.1"/><path class="cls-1" d="M62.29,30.71h4.88a.22.22,0,0,1,.23.21c0,.16,0,.32,0,.48q0,4.48,0,9c0,.14,0,.28,0,.42s-.08.29-.29.3a3.81,3.81,0,0,1-.48,0H57.83c-.85,0-.79.06-.79-.77V31.5c0-.18,0-.37,0-.55s.07-.22.21-.22l.55,0h4.48"/><path class="cls-1" d="M48.51,64.2H43.62a.21.21,0,0,1-.2-.23c0-.13,0-.27,0-.41V54.46c0-.65,0-.63.65-.63h9.09c.65,0,.63,0,.63.65v9.09c0,.65,0,.63-.65.63H48.51"/><path class="cls-1" d="M41.11,13.5H38.29c-.27,0-.33-.07-.34-.32s0-.23,0-.34V7.61c0-.33.07-.38.42-.4h5.57a.26.26,0,0,1,.27.25c0,.14,0,.28,0,.42v5.29c0,.25-.08.31-.35.31Z"/><path class="cls-1" d="M27.3,30.71h2.27c.95,0,.86-.09.87.83v4.68c0,.16,0,.32,0,.48s-.09.27-.31.29H24.48c-.21,0-.29-.09-.3-.29s0-.23,0-.34v-5.3c0-.3.06-.33.38-.35H27.3"/><path class="cls-1" d="M60.21,44.23H62.9c.31,0,.35.06.36.37v5.16c0,.82.05.77-.73.77H57.71l-.48,0a.19.19,0,0,1-.17-.18c0-.12,0-.23,0-.35V44.54c0-.25.07-.3.35-.31h2.82Z"/><path class="cls-1" d="M47.56,24.1V21.55c0-.13,0-.27,0-.41a.18.18,0,0,1,.18-.17l.41,0h5.37a.24.24,0,0,1,.23.22c0,.13,0,.27,0,.41v5c0,.13,0,.27,0,.41a.24.24,0,0,1-.23.21H48.1l-.34,0a.18.18,0,0,1-.18-.17c0-.16,0-.32,0-.48V24.1"/><path class="cls-1" d="M16.55,43.25V45.8c0,.13,0,.27,0,.41a.18.18,0,0,1-.18.17H10.57a.22.22,0,0,1-.23-.21c0-.14,0-.28,0-.41v-5c0-.14,0-.27,0-.41a.22.22,0,0,1,.23-.21h5.78a.19.19,0,0,1,.18.18c0,.16,0,.32,0,.48v2.48"/><path class="cls-1" d="M77.29,38v2.41c0,.16,0,.32,0,.48a.24.24,0,0,1-.24.27,2.88,2.88,0,0,1-.41,0H71.34a.25.25,0,0,1-.27-.26V35.51c0-.12,0-.24,0-.35s.06-.3.34-.31h5.43c.41,0,.44,0,.45.42Z"/><path class="cls-1" d="M43.41,70.85V68.37a2.82,2.82,0,0,1,0-.41.18.18,0,0,1,.17-.18l.34,0h5.37c.23,0,.29.07.31.28a2.43,2.43,0,0,1,0,.27c0,1.72,0,3.45,0,5.17,0,.11,0,.23,0,.34a.19.19,0,0,1-.18.18,4.91,4.91,0,0,1-.55,0H43.79c-.33,0-.38-.07-.38-.43C43.4,72.68,43.41,71.76,43.41,70.85Z"/><path class="cls-1" d="M36.91,53.83h2.82c.16,0,.26.08.27.25s0,.18,0,.27v5.16c0,.11,0,.23,0,.34a.21.21,0,0,1-.22.21H34.06c-.16,0-.26-.07-.27-.24v-5.5a2.72,2.72,0,0,1,0-.28c0-.13.1-.19.23-.2h2.88"/><path class="cls-1" d="M33.79,45.25v-4.4c0-.18,0-.37,0-.55a.21.21,0,0,1,.22-.21c.67,0,1.33,0,2,0,.17,0,.24.11.24.26s0,.37,0,.55v6.54c0,.19,0,.37,0,.55a.21.21,0,0,0,.21.22h3.24a.24.24,0,0,1,.27.25v1.79c0,.2-.08.26-.31.27H34a.19.19,0,0,1-.18-.18c0-.18,0-.37,0-.55V45.25"/><path class="cls-1" d="M48.58,50.55H44.11l-.48,0a.2.2,0,0,1-.21-.22q0-.93,0-1.86a.21.21,0,0,1,.21-.22h6.95a5,5,0,0,0,.55,0,.22.22,0,0,0,.23-.21c0-.16,0-.32,0-.48V44.9c0-.13,0-.27,0-.41a.24.24,0,0,1,.26-.25H53.5a.25.25,0,0,1,.27.25c0,.11,0,.23,0,.34V50c0,.12,0,.23,0,.35a.21.21,0,0,1-.23.2l-.55,0H48.58"/><path class="cls-1" d="M51.37,15.87v1.58c0,.22-.08.29-.29.29-1.08,0-2.15,0-3.23,0a.23.23,0,0,1-.26-.25c0-.34,0-.69,0-1,0-.73,0-1.47,0-2.2,0-.22.07-.29.29-.3H51c.27,0,.32.06.33.33,0,.52,0,1.05,0,1.58Z"/><path class="cls-1" d="M66.45,46.12V44.61c0-.32.06-.38.35-.38h3.09c.28,0,.34.06.34.31,0,1.05,0,2.11,0,3.16,0,.25-.07.31-.35.31h-3c-.39,0-.41,0-.42-.45V46.12"/><path class="cls-1" d="M20.8,35c0,.5,0,1,0,1.51,0,.32-.05.37-.35.38h-3c-.46,0-.48,0-.48-.46q0-1.44,0-2.88c0-.41,0-.44.42-.45h2.95c.37,0,.41,0,.41.39,0,.5,0,1,0,1.51"/><path class="cls-1" d="M26.65,55.64c0-.5,0-1,0-1.51,0-.31.06-.36.36-.36h3.16c.16,0,.26.09.26.25s0,.51,0,.76c0,.82,0,1.65,0,2.47,0,.22-.07.29-.29.29H26.91a.23.23,0,0,1-.25-.25c0-.55,0-1.1,0-1.65Z"/><path class="cls-1" d="M28.54,27.36H27.17c-.5,0-.52,0-.52-.49,0-.74,0-1.47,0-2.2,0-.23,0-.46,0-.69s0-.4.39-.41.82,0,1.23,0c.58,0,1.15,0,1.72,0,.41,0,.44,0,.45.42v3c0,.36-.05.41-.39.42Z"/><path class="cls-1" d="M84.31,37.87c0,.55,0,1.1,0,1.65a.23.23,0,0,1-.25.26H80.88c-.28,0-.34-.05-.34-.31,0-1,0-2.07,0-3.1,0-.3.07-.37.37-.37h3c.31,0,.36.06.37.35,0,.51,0,1,0,1.52Z"/><path class="cls-1" d="M46.17,81.24H44.59a.25.25,0,0,1-.27-.25v-.07c0-1,0-2.06,0-3.09,0-.31.07-.37.37-.38h3c.31,0,.36.06.37.36,0,1,0,2.07,0,3.1,0,.27,0,.32-.32.33Z"/><path class="cls-1" d="M60.78,25.49V27c0,.28-.06.35-.31.35H57.32c-.2,0-.27-.08-.27-.31q0-1.58,0-3.15c0-.26.06-.31.33-.32h3c.33,0,.37.05.38.42v1.5"/><path class="cls-1" d="M36.11,65.42c0-.55,0-1.1,0-1.64a.23.23,0,0,1,.25-.26h3.15c.27,0,.32.06.32.33,0,1,0,2.1,0,3.16,0,.21-.07.29-.29.29H36.4c-.21,0-.28-.08-.29-.29V65.42Z"/><path class="cls-1" d="M4.9,45.19c-.51,0-1,0-1.51,0-.29,0-.35,0-.35-.3,0-1,0-2.07,0-3.1,0-.27,0-.33.32-.33H6.45c.26,0,.32.06.32.34v3.09c0,.23-.07.29-.29.3Z"/><path class="cls-1" d="M60.78,55.71v1.51c0,.28-.06.34-.31.34H57.3a.23.23,0,0,1-.25-.25c0-.16,0-.32,0-.48V54.62c0-.87-.09-.79.83-.79.57,0,1.15,0,1.72,0a2.33,2.33,0,0,1,1.14.09A4.43,4.43,0,0,1,60.78,55c0,.23,0,.46,0,.69Z"/></svg>